<svg width="24" height="23" viewBox="0 0 24 23" fill="none" xmlns="http://www.w3.org/2000/svg">
<g clip-path="url(#clip0_5_190)">
<path d="M12.431 0C7.63936 0 3.80603 3.83333 3.80603 8.625C3.80603 14.5667 7.06436 19.8375 11.9519 22.9042C12.2394 23.0958 12.6227 23.0958 13.006 22.9042C17.7977 19.7417 21.056 14.5667 21.056 8.625C21.056 3.83333 17.2227 0 12.431 0ZM12.431 12.4583C10.3227 12.4583 8.5977 10.7333 8.5977 8.625C8.5977 6.51667 10.3227 4.79167 12.431 4.79167C14.5394 4.79167 16.2644 6.51667 16.2644 8.625C16.2644 10.7333 14.5394 12.4583 12.431 12.4583Z" fill="#FF6D4D"/>
</g>
<defs>
<clipPath id="clip0_5_190">
<rect width="23" height="23" fill="white" transform="translate(0.93103)"/>
</clipPath>
</defs>
</svg>
